inDegrees=no
num_controls=7
num_derivatives=13
num_iterations=166
num_multipliers=7
num_parameters=0
num_slacks=7
num_states=26
objective=5.643963
objective_accelerations=0.882393
objective_balance=0.021306
objective_effort=0.197996
objective_height=4.424489
objective_ligament=0.117779
solver_duration=1882.634353
status=Solve_Succeeded
success=true
DataType=double
version=3
OpenSimVersion=4.4-2022-07-23-0e9fedc
endheader
time	/jointset/ground_pelvis/pelvis_tilt/value	/jointset/ground_pelvis/pelvis_tx/value	/jointset/ground_pelvis/pelvis_ty/value	/jointset/hip_l/hip_flexion_l/value	/jointset/hip_l/hip_adduction_l/value	/jointset/hip_l/hip_rotation_l/value	/jointset/back/lumbar_extension/value	/jointset/patellofemoral_l/patellar_flexion_l/value	/jointset/knee_l/knee_flexion_l/value	/jointset/knee_l/knee_adduction_l/value	/jointset/knee_l/knee_rotation_l/value	/jointset/ankle_l/ankle_angle_l/value	/jointset/subtalar_l/subtalar_angle_l/value	/jointset/ground_pelvis/pelvis_tilt/speed	/jointset/ground_pelvis/pelvis_tx/speed	/jointset/ground_pelvis/pelvis_ty/speed	/jointset/hip_l/hip_flexion_l/speed	/jointset/hip_l/hip_adduction_l/speed	/jointset/hip_l/hip_rotation_l/speed	/jointset/back/lumbar_extension/speed	/jointset/patellofemoral_l/patellar_flexion_l/speed	/jointset/knee_l/knee_flexion_l/speed	/jointset/knee_l/knee_adduction_l/speed	/jointset/knee_l/knee_rotation_l/speed	/jointset/ankle_l/ankle_angle_l/speed	/jointset/subtalar_l/subtalar_angle_l/speed	/forceset/tau_hip_flexion_l	/forceset/tau_hip_adduction_l	/forceset/tau_hip_rotation_l	/forceset/tau_knee_flexion_l	/forceset/tau_ankle_angle_l	/forceset/tau_subtalar_angle_l	/forceset/tau_lumbar_extension	lambda_cid13_p0	lambda_cid13_p1	lambda_cid13_p2	lambda_cid13_p3	lambda_cid13_p4	lambda_cid13_p5	lambda_cid14_p0	/jointset/ground_pelvis/pelvis_tilt/accel	/jointset/ground_pelvis/pelvis_tx/accel	/jointset/ground_pelvis/pelvis_ty/accel	/jointset/hip_l/hip_flexion_l/accel	/jointset/hip_l/hip_adduction_l/accel	/jointset/hip_l/hip_rotation_l/accel	/jointset/back/lumbar_extension/accel	/jointset/patellofemoral_l/patellar_flexion_l/accel	/jointset/knee_l/knee_flexion_l/accel	/jointset/knee_l/knee_adduction_l/accel	/jointset/knee_l/knee_rotation_l/accel	/jointset/ankle_l/ankle_angle_l/accel	/jointset/subtalar_l/subtalar_angle_l/accel	gamma_cid13_p0	gamma_cid13_p1	gamma_cid13_p2	gamma_cid13_p3	gamma_cid13_p4	gamma_cid13_p5	gamma_cid14_p0
1.5	-0.3756484446205237	0.03478212103541505	0.770997806907458	1.115240915941345	-0.3478493365869492	-0.04651484196900778	-0.3384482129315625	0.8935450541710807	0.8935450541710994	0.004383671146223131	-0.1715170503843282	0.2811887056311669	0.1711462818044024	0.5800275351614036	0.282118225633791	0.5940954222849242	-2.598441749819353	0.01991773411736407	-0.6390406013057464	0.6084060999160706	-2.40270507800341	-2.40270507800318	-0.2907103173510426	0.03877968386597488	-0.5596833971038607	-0.2052146215116499	-0.1424711244469917	0.02994294808104258	-0.006495534603101613	-0.1396462949197183	-0.02534415407206389	0.02525816297175849	0.1328538274357028	-30.07030761983873	-6.833495206061518	2.097988847676016	-6.043925349170892	-425.9508448481988	-64.78016094605962	-6.949362751201948	0.7671458930170356	0.7517709212650974	-0.8565499868991293	-1.468274669631273	0.4168413848997232	-0.3622115357684618	1.769289398710906	-1.310208441824376	-1.310208441824326	-0.1241594503576264	0.3616933735349769	-0.6335996457129273	0.506077441293792	1.987634493303577e-07	3.544807100979928e-06	-2.24391592100365e-06	3.986735829249001e-07	7.068744555978017e-07	2.162120007558839e-06	5.708274409402163e-07
1.51	-0.369810161300452	0.03764059921029318	0.7768947756140951	1.08918493180493	-0.3476319170340144	-0.05291742506085313	-0.3322776618975305	0.8694547609832818	0.8694547609832829	0.001461666403726329	-0.1711110180845217	0.275560221106384	0.1691157958485516	0.5875032365867046	0.2895397736147198	0.5851663802604083	-2.612391853580748	0.02357800427043846	-0.6415398274325329	0.6256083666235079	-2.415033680387308	-2.415033680387168	-0.2935609730695666	0.04238337895498061	-0.5659030979706042	-0.2008285592632637	-0.137033404926812	0.02799792496187011	-0.006074051180904705	-0.1365634173209783	-0.024694629240054	0.02552331415148268	0.1284539229205994	-29.6058811196197	-7.266506470636604	2.437204380221397	-6.072631332969629	-422.0374474112033	-65.43940549942334	-7.902050484261129	0.7189865520601615	0.7316258122549728	-0.9305837997323954	-1.303775736258917	0.3435708672063412	-0.2023560099775974	1.681334266638798	-1.146402338636391	-1.146402338649899	-0.3462457690342003	0.3516983845666272	-0.5995385344058825	0.4139270086415123	5.798311600332974e-07	1.182062915442042e-06	-6.045574782291237e-06	-1.138163555012819e-07	1.191819048905127e-06	1.56961460800526e-06	8.4773677169289e-07
1.52	-0.3639008801091745	0.04057214868013025	0.782698553402586	1.063000367129529	-0.3473773045722093	-0.05934671598573481	-0.3259379604044483	0.8452507385312444	0.8452507385312409	-0.001484990323224767	-0.1706705506722312	0.269872862927483	0.1671309817935908	0.5942271094029539	0.2967324846255788	0.5754572386557252	-2.62415785761675	0.02735631589131427	-0.6443821679130738	0.6422361917260927	-2.42545093084976	-2.425450930849709	-0.2956407142454653	0.04566670636331872	-0.5714581279273822	-0.1960802413336582	-0.1315956854066086	0.02605290184270233	-0.005652567758562161	-0.133480539722231	-0.02404510440804615	0.02578846533120976	0.1240540184055174	-29.13470926110292	-7.702710586803691	2.779230970418937	-6.158929756584939	-417.9952578560172	-66.20530250811298	-8.905224489751472	0.6167801712066668	0.706003527251147	-1.012569902932621	-1.031454724552578	0.4404496784599985	-0.4308344065192833	1.65440107774034	-0.927938057535094	-0.9279380575350821	0.03002345816742796	0.297619837401454	-0.5006654637197625	0.5785285775376686	8.033531662930648e-07	-2.438038905982915e-07	-8.247999460013594e-06	-4.11732536370807e-07	1.488977823329519e-06	1.322291565665038e-06	9.975218197958106e-07
1.53	-0.3579279398316885	0.04357425295644133	0.7884013887830861	1.036709164302428	-0.3470846441540337	-0.06580307332135359	-0.319435056562315	0.8209523791716802	0.8209523791716961	-0.004451126317162356	-0.1701968770597341	0.2641330822993728	0.1651949155147008	0.6002502762141891	0.303627121742287	0.5649838981650452	-2.633696894147391	0.03116627855764242	-0.6467961918626223	0.6582259603239979	-2.433867489373383	-2.433867489373337	-0.2975872425177006	0.04910054618517221	-0.5763996709552687	-0.1911179571869797	-0.1266575883904688	0.02605120810001917	-0.005107518611496732	-0.1297140690824699	-0.02426279740564896	0.02445242237205078	0.1199256765365513	-29.11661105238672	-7.274675269181552	2.881226007615148	-5.670890682854572	-414.232782101406	-65.15022818181656	-9.912756672218855	0.5785840599561071	0.6719026493766932	-1.083279237191781	-0.8571206721029209	0.3512619173844639	-0.1316661252787362	1.553472294227228	-0.745701019283144	-0.745701019283761	-0.3074951761625905	0.369456435240458	-0.4761254738377395	0.458548874868883	8.594828615819633e-07	-6.742384809224881e-07	-8.751237817697912e-06	-4.816640998363861e-07	1.586614165190798e-06	1.441724777864004e-06	1.01223731758337e-06
